HIERARCHY
ROOT Hips
{
	OFFSET 0.000000 103.266502 0.000000
	CHANNELS 6 Xposition Yposition Zposition Xrotation Yrotation Zrotation 
	JOINT Spine
	{
		OFFSET -0.002400 12.777504 0.315300
		CHANNELS 3 Xrotation Yrotation Zrotation
		JOINT Spine1
		{
			OFFSET -0.002067 5.816869 0.032633
			CHANNELS 3 Xrotation Yrotation Zrotation
			JOINT Spine1_split
			{
				OFFSET -0.002067 5.816869 0.032633
				CHANNELS 3 Xrotation Yrotation Zrotation
				JOINT Spine2
				{
					OFFSET -0.002067 5.816869 0.032633
					CHANNELS 3 Xrotation Yrotation Zrotation
					JOINT Neck
					{
						OFFSET -0.003700 21.199493 -0.826900
						CHANNELS 3 Xrotation Yrotation Zrotation
						JOINT Head
						{
							OFFSET 0.000000 20.442200 4.834800
							CHANNELS 3 Xrotation Yrotation Zrotation
							JOINT HeadTop_End
							{
								OFFSET 0.000000 34.668396 4.968400
								CHANNELS 3 Xrotation Yrotation Zrotation
								End Site
								{
									OFFSET 0.000000 0.000000 0.000000
								}
							}
						}
					}
					JOINT LeftShoulder
					{
						OFFSET 3.288150 8.794197 -1.372250
						CHANNELS 3 Xrotation Yrotation Zrotation
						JOINT LeftShoulder_split
						{
							OFFSET 3.288150 8.794197 -1.372250
							CHANNELS 3 Xrotation Yrotation Zrotation
							JOINT LeftArm
							{
								OFFSET 11.953299 -2.279007 -0.146200
								CHANNELS 3 Xrotation Yrotation Zrotation
								JOINT LeftForeArm
								{
									OFFSET 18.448900 0.000000 0.000000
									CHANNELS 3 Xrotation Yrotation Zrotation
									JOINT LeftHand
									{
										OFFSET 29.527798 0.000000 0.000000
										CHANNELS 3 Xrotation Yrotation Zrotation
										JOINT LeftHandThumb1
										{
											OFFSET 10.739754 -2.369614 9.225399
											CHANNELS 3 Xrotation Yrotation Zrotation
											JOINT LeftHandThumb2
											{
												OFFSET 4.926170 -2.844131 2.844125
												CHANNELS 3 Xrotation Yrotation Zrotation
												JOINT LeftHandThumb3
												{
													OFFSET 4.614891 -2.664413 2.664409
													CHANNELS 3 Xrotation Yrotation Zrotation
													JOINT LeftHandThumb4
													{
														OFFSET 4.432465 -2.559082 2.559083
														CHANNELS 3 Xrotation Yrotation Zrotation
														End Site
														{
															OFFSET 0.000000 0.000000 0.000000
														}
													}
												}
											}
										}
										JOINT LeftHandIndex1
										{
											OFFSET 26.467674 0.187653 6.405298
											CHANNELS 3 Xrotation Yrotation Zrotation
											JOINT LeftHandIndex2
											{
												OFFSET 8.792900 0.000000 0.000000
												CHANNELS 3 Xrotation Yrotation Zrotation
												JOINT LeftHandIndex3
												{
													OFFSET 10.075203 0.000000 0.000000
													CHANNELS 3 Xrotation Yrotation Zrotation
													End Site
													{
														OFFSET 0.000000 0.000000 0.000000
													}
												}
											}
										}
										JOINT LeftHandMiddle1
										{
											OFFSET 25.764404 0.000000 0.000000
											CHANNELS 3 Xrotation Yrotation Zrotation
											JOINT LeftHandMiddle2
											{
												OFFSET 9.393974 0.000000 0.000000
												CHANNELS 3 Xrotation Yrotation Zrotation
												JOINT LeftHandMiddle3
												{
													OFFSET 10.771950 0.000000 0.000000
													CHANNELS 3 Xrotation Yrotation Zrotation
													End Site
													{
														OFFSET 0.000000 0.000000 0.000000
													}
												}
											}
										}
										JOINT LeftHandRing1
										{
											OFFSET 24.660927 0.144547 -6.225808
											CHANNELS 3 Xrotation Yrotation Zrotation
											JOINT LeftHandRing2
											{
												OFFSET 9.393799 0.000000 0.000000
												CHANNELS 3 Xrotation Yrotation Zrotation
												JOINT LeftHandRing3
												{
													OFFSET 9.928497 0.000000 0.000000
													CHANNELS 3 Xrotation Yrotation Zrotation
													End Site
													{
														OFFSET 0.000000 0.000000 0.000000
													}
												}
											}
										}
										JOINT LeftHandPinky1
										{
											OFFSET 23.655350 0.125290 -12.815412
											CHANNELS 3 Xrotation Yrotation Zrotation
											JOINT LeftHandPinky2
											{
												OFFSET 8.425102 0.000000 0.000000
												CHANNELS 3 Xrotation Yrotation Zrotation
												JOINT LeftHandPinky3
												{
													OFFSET 8.147003 0.000000 0.000000
													CHANNELS 3 Xrotation Yrotation Zrotation
													End Site
													{
														OFFSET 0.000000 0.000000 0.000000
													}
												}
											}
										}
									}
								}
							}
						}
					}
					JOINT RightShoulder
					{
						OFFSET -3.249400 8.794197 -1.372250
						CHANNELS 3 Xrotation Yrotation Zrotation
						JOINT RightShoulder_split
						{
							OFFSET -3.249400 8.794197 -1.372250
							CHANNELS 3 Xrotation Yrotation Zrotation
							JOINT RightArm
							{
								OFFSET -11.953299 -2.279007 -0.146200
								CHANNELS 3 Xrotation Yrotation Zrotation
								JOINT RightForeArm
								{
									OFFSET -18.448900 0.000000 0.000000
									CHANNELS 3 Xrotation Yrotation Zrotation
									JOINT RightHand
									{
										OFFSET -29.527802 0.000000 0.000000
										CHANNELS 3 Xrotation Yrotation Zrotation
										JOINT RightHandThumb1
										{
											OFFSET -10.739754 -2.369614 9.225399
											CHANNELS 3 Xrotation Yrotation Zrotation
											JOINT RightHandThumb2
											{
												OFFSET -4.926170 -2.844131 2.844125
												CHANNELS 3 Xrotation Yrotation Zrotation
												JOINT RightHandThumb3
												{
													OFFSET -4.614891 -2.664413 2.664409
													CHANNELS 3 Xrotation Yrotation Zrotation
													JOINT RightHandThumb4
													{
														OFFSET -4.432465 -2.559082 2.559083
														CHANNELS 3 Xrotation Yrotation Zrotation
														End Site
														{
															OFFSET 0.000000 0.000000 0.000000
														}
													}
												}
											}
										}
										JOINT RightHandIndex1
										{
											OFFSET -26.467674 0.187653 6.405298
											CHANNELS 3 Xrotation Yrotation Zrotation
											JOINT RightHandIndex2
											{
												OFFSET -8.792900 0.000000 0.000000
												CHANNELS 3 Xrotation Yrotation Zrotation
												JOINT RightHandIndex3
												{
													OFFSET -10.075203 0.000000 0.000000
													CHANNELS 3 Xrotation Yrotation Zrotation
													End Site
													{
														OFFSET 0.000000 0.000000 0.000000
													}
												}
											}
										}
										JOINT RightHandMiddle1
										{
											OFFSET -25.764404 0.000000 0.000000
											CHANNELS 3 Xrotation Yrotation Zrotation
											JOINT RightHandMiddle2
											{
												OFFSET -9.393974 0.000000 0.000000
												CHANNELS 3 Xrotation Yrotation Zrotation
												JOINT RightHandMiddle3
												{
													OFFSET -10.771950 0.000000 0.000000
													CHANNELS 3 Xrotation Yrotation Zrotation
													End Site
													{
														OFFSET 0.000000 0.000000 0.000000
													}
												}
											}
										}
										JOINT RightHandRing1
										{
											OFFSET -24.660927 0.144547 -6.225808
											CHANNELS 3 Xrotation Yrotation Zrotation
											JOINT RightHandRing2
											{
												OFFSET -9.393799 0.000000 0.000000
												CHANNELS 3 Xrotation Yrotation Zrotation
												JOINT RightHandRing3
												{
													OFFSET -9.928497 0.000000 0.000000
													CHANNELS 3 Xrotation Yrotation Zrotation
													End Site
													{
														OFFSET 0.000000 0.000000 0.000000
													}
												}
											}
										}
										JOINT RightHandPinky1
										{
											OFFSET -23.655350 0.125290 -12.815412
											CHANNELS 3 Xrotation Yrotation Zrotation
											JOINT RightHandPinky2
											{
												OFFSET -8.425102 0.000000 0.000000
												CHANNELS 3 Xrotation Yrotation Zrotation
												JOINT RightHandPinky3
												{
													OFFSET -8.147003 0.000000 0.000000
													CHANNELS 3 Xrotation Yrotation Zrotation
													End Site
													{
														OFFSET 0.000000 0.000000 0.000000
													}
												}
											}
										}
									}
								}
							}
						}
					}
				}
			}
		}
	}
	JOINT LeftUpLeg
	{
		OFFSET 11.394100 -6.187798 -0.413800
		CHANNELS 3 Xrotation Yrotation Zrotation
		JOINT LeftLeg
		{
			OFFSET 0.430247 -32.302673 3.732800
			CHANNELS 3 Xrotation Yrotation Zrotation
			JOINT LeftFoot
			{
				OFFSET -0.430247 -48.264931 -6.423300
				CHANNELS 3 Xrotation Yrotation Zrotation
				JOINT LeftToeBase
				{
					OFFSET 4.230900 -16.068199 23.438400
					CHANNELS 3 Xrotation Yrotation Zrotation
					JOINT LeftToe_End
					{
						OFFSET 4.510700 0.695400 19.974600
						CHANNELS 3 Xrotation Yrotation Zrotation
						End Site
						{
							OFFSET 0.000000 0.000000 0.000000
						}
					}
				}
			}
		}
	}
	JOINT RightUpLeg
	{
		OFFSET -11.333700 -6.187798 -0.413800
		CHANNELS 3 Xrotation Yrotation Zrotation
		JOINT RightLeg
		{
			OFFSET -0.430392 -32.302628 3.733000
			CHANNELS 3 Xrotation Yrotation Zrotation
			JOINT RightFoot
			{
				OFFSET 0.430392 -48.264973 -6.423500
				CHANNELS 3 Xrotation Yrotation Zrotation
				JOINT RightToeBase
				{
					OFFSET -4.230900 -16.068199 23.438400
					CHANNELS 3 Xrotation Yrotation Zrotation
					JOINT RightToe_End
					{
						OFFSET -4.510700 0.695400 19.974600
						CHANNELS 3 Xrotation Yrotation Zrotation
						End Site
						{
							OFFSET 0.000000 0.000000 0.000000
						}
					}
				}
			}
		}
	}
}
MOTION
Frames: 6
Frame Time: 0.016667
-0.276837 99.848831 -0.111723 -7.172100 -4.271095 3.190969 5.280568 2.109175 -2.291090 1.478230 0.730365 -0.788770 0.000000 0.000000 0.000000 1.440798 0.721971 -0.741220 2.260305 5.360285 1.627124 3.299470 -10.639882 2.336762 0.000000 0.000000 -0.000000 -0.595444 -16.332002 -20.041824 0.000000 0.000000 0.000000 11.139995 0.583285 -33.762390 -0.098417 -89.545651 -0.097524 -131.220802 -7.501377 10.656103 -12.800114 -17.470132 4.121661 1.000138 0.731301 -1.438312 -7.335815 -0.421696 13.147364 -0.000000 0.000002 -0.000005 -3.532545 4.254384 -63.954599 3.402098 5.315507 -65.218936 0.000000 -0.000000 0.000001 2.434382 7.296043 -69.364075 3.297861 5.266368 -64.088642 0.000000 0.000001 -0.000003 4.717043 8.075522 -77.582281 2.056304 4.456877 -49.517652 0.000001 0.000000 -0.000001 6.410337 8.363741 -80.414570 1.722711 4.149882 -45.074413 -0.000000 0.000000 -0.000001 0.754163 18.436591 11.539476 0.000000 0.000000 0.000000 10.691745 23.557111 38.362198 -0.000098 97.963880 0.000091 -34.546885 -20.180670 22.179149 20.470543 7.475566 18.843587 4.151720 -12.160929 -33.847993 -6.346097 -41.944048 -36.535474 -0.000003 0.000002 -0.000001 -0.887084 1.427986 12.684532 1.917402 -3.767467 53.934326 -0.000000 0.000001 -0.000003 0.770891 -5.199591 54.618830 5.563870 -4.568247 101.238573 -0.000002 0.000002 0.000001 6.934472 -8.544296 63.908755 2.909290 -4.317408 67.934701 0.000001 0.000000 -0.000001 8.373407 -8.171765 73.989930 2.173681 -3.940960 57.745384 0.000001 -0.000001 0.000001 -10.150079 11.568350 5.555142 11.855374 7.607754 1.460176 6.621768 0.077053 -6.119313 -0.000009 -0.000002 -0.000003 -0.000000 0.000000 -0.000000 1.323273 -15.435719 -6.603566 20.322652 -9.259224 -3.379438 -14.678946 -5.325630 7.228885 -2.342331 0.000005 0.000004 0.000000 0.000002 0.000000 
-0.107763 99.670532 -0.150433 -7.089768 -4.428840 3.212295 5.278889 2.038762 -2.304287 1.478230 0.635006 -0.779718 0.000000 0.000000 0.000000 1.440799 0.631946 -0.712957 2.269832 5.220005 1.536724 3.181581 -10.468704 2.168120 0.000001 -0.000000 -0.000000 -0.595444 -16.332002 -20.041819 0.000000 0.000000 0.000000 11.399584 0.974261 -33.753921 0.060918 -89.758863 0.059842 -131.360001 -7.634400 10.579102 -12.800114 -17.470132 4.121658 1.000137 0.731301 -1.438317 -7.335816 -0.421697 13.147360 0.000001 -0.000001 0.000001 -3.532548 4.254385 -63.954599 3.402096 5.315507 -65.218936 0.000000 -0.000000 0.000001 2.434381 7.296043 -69.364082 3.297862 5.266369 -64.088642 -0.000002 0.000000 0.000001 4.717043 8.075521 -77.582281 2.056305 4.456876 -49.517656 0.000001 0.000000 -0.000000 6.410337 8.363740 -80.414570 1.722709 4.149880 -45.074406 0.000001 -0.000000 0.000000 0.751043 18.451083 11.540469 0.000000 0.000000 0.000000 10.590259 23.808726 38.571926 -0.000119 97.773133 0.000123 -34.403017 -20.303943 22.406536 20.470543 7.475569 18.843587 4.151723 -12.160925 -33.848000 -6.346094 -41.944048 -36.535471 -0.000000 0.000000 -0.000000 -0.887086 1.427986 12.684532 1.917401 -3.767467 53.934326 0.000001 0.000001 -0.000000 0.770888 -5.199593 54.618830 5.563869 -4.568247 101.238573 -0.000002 -0.000004 0.000000 6.934471 -8.544294 63.908762 2.909289 -4.317407 67.934701 -0.000002 -0.000000 -0.000002 8.373406 -8.171765 73.989937 2.173684 -3.940959 57.745384 0.000000 0.000001 0.000001 -10.956965 11.497981 5.559026 13.044487 7.415000 1.463216 6.166001 0.477105 -6.108511 -0.000016 -0.000003 0.000005 0.000000 0.000002 0.000000 0.560035 -15.274256 -6.924898 21.277455 -9.166657 -3.383320 -14.948723 -5.352908 7.360480 -2.342331 0.000003 0.000004 -0.000000 -0.000000 0.000000 
0.043057 99.507484 -0.194541 -7.006810 -4.582532 3.244041 5.277658 1.975573 -2.325961 1.478230 0.545823 -0.771255 0.000000 0.000000 0.000000 1.440799 0.547799 -0.686543 2.278949 5.079155 1.446695 3.068804 -10.293893 2.008880 -0.000000 -0.000000 0.000000 -0.595444 -16.332000 -20.041821 0.000000 0.000000 0.000000 11.673891 1.386652 -33.751072 -7.479522 -89.979102 -7.478295 -131.507192 -7.772077 10.489910 -12.800116 -17.470132 4.121659 1.000136 0.731302 -1.438317 -7.335815 -0.421698 13.147361 -0.000000 0.000000 -0.000003 -3.532547 4.254387 -63.954592 3.402096 5.315506 -65.218936 -0.000001 0.000000 0.000001 2.434383 7.296046 -69.364075 3.297861 5.266368 -64.088642 0.000001 0.000000 -0.000000 4.717043 8.075524 -77.582281 2.056303 4.456879 -49.517652 0.000001 0.000000 0.000001 6.410337 8.363743 -80.414570 1.722708 4.149882 -45.074406 -0.000002 0.000000 0.000000 0.748015 18.465155 11.541426 0.000000 0.000000 0.000000 10.484199 24.073591 38.792947 -0.000025 97.573781 -0.000031 -34.246852 -20.433752 22.645899 20.470543 7.475569 18.843589 4.151722 -12.160927 -33.847996 -6.346099 -41.944048 -36.535471 -0.000003 -0.000000 0.000001 -0.887085 1.427986 12.684535 1.917402 -3.767466 53.934326 -0.000001 0.000001 -0.000002 0.770890 -5.199592 54.618830 5.563871 -4.568245 101.238573 -0.000000 -0.000001 -0.000004 6.934471 -8.544293 63.908762 2.909287 -4.317407 67.934701 0.000002 0.000000 0.000002 8.373406 -8.171764 73.989937 2.173682 -3.940958 57.745384 -0.000000 0.000000 0.000001 -11.664630 11.442047 5.540248 14.062822 7.198011 1.468327 5.784791 0.893320 -6.095766 -0.000026 -0.000007 -0.000001 0.000000 0.000000 -0.000000 -0.154951 -15.115446 -7.226980 22.150034 -9.079024 -3.386262 -15.189166 -5.375766 7.474162 -2.342331 0.000003 0.000004 -0.000000 0.000001 0.000000 
0.184511 99.353355 -0.241389 -6.923452 -4.734201 3.281436 5.276664 1.916006 -2.352210 1.478230 0.459727 -0.763087 0.000000 0.000000 0.000000 1.440798 0.466592 -0.661054 2.287673 4.938015 1.356870 2.959046 -10.117157 1.854505 0.000001 -0.000000 0.000000 -0.595444 -16.332000 -20.041819 0.000000 0.000000 0.000000 11.962424 1.823209 -33.756151 0.507095 -90.210898 0.507720 -131.660694 -7.915221 10.391287 -12.800114 -17.470130 4.121654 1.000138 0.731301 -1.438319 -7.335816 -0.421699 13.147365 -0.000000 -0.000001 0.000002 -3.532548 4.254385 -63.954599 3.402096 5.315506 -65.218936 -0.000001 0.000000 -0.000001 2.434381 7.296042 -69.364075 3.297858 5.266369 -64.088649 0.000000 0.000001 0.000002 4.717041 8.075521 -77.582281 2.056307 4.456878 -49.517649 -0.000001 -0.000000 0.000002 6.410336 8.363740 -80.414570 1.722712 4.149880 -45.074406 -0.000000 -0.000000 -0.000000 0.744927 18.479492 11.542404 0.000000 0.000000 0.000000 10.372843 24.349274 39.024385 0.000114 97.366799 -0.000173 -34.080813 -20.568812 22.896742 20.470543 7.475569 18.843589 4.151723 -12.160927 -33.847996 -6.346092 -41.944048 -36.535478 -0.000000 0.000000 0.000000 -0.887086 1.427988 12.684533 1.917403 -3.767469 53.934326 -0.000000 -0.000000 -0.000001 0.770889 -5.199592 54.618827 5.563873 -4.568246 101.238580 -0.000001 -0.000000 -0.000002 6.934470 -8.544293 63.908769 2.909289 -4.317406 67.934701 0.000002 -0.000000 -0.000002 8.373406 -8.171763 73.989937 2.173681 -3.940958 57.745384 -0.000003 0.000000 0.000002 -12.311763 11.395684 5.507266 14.977305 6.961710 1.477242 5.448569 1.324756 -6.082782 -0.000048 -0.000000 0.000000 -0.000000 0.000002 0.000000 -0.837874 -14.958304 -7.516667 22.968521 -8.992380 -3.388659 -15.409769 -5.395888 7.577354 -2.342331 0.000005 0.000004 -0.000000 -0.000002 -0.000000 
0.324816 99.203773 -0.288885 -6.839909 -4.886213 3.321826 5.275790 1.856605 -2.381234 1.478231 0.373632 -0.754921 0.000000 0.000000 0.000000 1.440799 0.385385 -0.635565 2.296012 4.796856 1.267086 2.850220 -9.940148 1.700443 0.000000 0.000001 0.000000 -0.595444 -16.332002 -20.041821 0.000000 0.000000 0.000000 12.260824 2.275650 -33.762622 0.048046 -90.455323 0.048829 -131.816272 -8.065866 10.296754 -12.800114 -17.470130 4.121655 1.000138 0.731302 -1.438318 -7.335815 -0.421697 13.147366 -0.000001 0.000000 -0.000001 -3.532547 4.254384 -63.954592 3.402097 5.315504 -65.218929 0.000001 0.000000 -0.000000 2.434381 7.296043 -69.364075 3.297863 5.266369 -64.088649 0.000002 0.000000 -0.000001 4.717041 8.075520 -77.582281 2.056304 4.456877 -49.517649 0.000003 -0.000000 0.000002 6.410337 8.363740 -80.414570 1.722712 4.149880 -45.074409 -0.000000 -0.000000 -0.000000 0.745095 18.495001 11.543411 0.000000 0.000000 0.000000 10.252227 24.630859 39.267454 0.000748 97.153116 -0.000755 -33.910264 -20.707023 23.160473 20.470545 7.475569 18.843589 4.151723 -12.160924 -33.847996 -6.346097 -41.944052 -36.535471 -0.000001 0.000001 -0.000001 -0.887085 1.427986 12.684535 1.917401 -3.767467 53.934329 0.000001 -0.000000 0.000001 0.770889 -5.199592 54.618830 5.563873 -4.568249 101.238580 0.000001 -0.000000 -0.000000 6.934471 -8.544293 63.908762 2.909286 -4.317409 67.934701 0.000001 0.000000 -0.000001 8.373407 -8.171762 73.989937 2.173682 -3.940957 57.745384 0.000004 -0.000000 0.000002 -12.924110 11.356367 5.463603 15.833582 6.710984 1.486671 5.136410 1.770261 -6.064588 -0.000021 -0.000002 -0.000000 0.000000 -0.000000 -0.000000 -1.500618 -14.801338 -7.801521 23.752394 -8.903178 -3.388143 -15.616184 -5.414691 7.676794 -2.342331 0.000005 0.000004 0.000000 -0.000002 -0.000000 
0.471850 99.055542 -0.335196 -6.756383 -5.041089 3.363413 5.274966 1.793987 -2.412127 1.478230 0.284448 -0.746464 0.000000 0.000000 0.000000 1.440799 0.301237 -0.609156 2.303981 4.655963 1.177177 2.740276 -9.764539 1.542149 0.000000 0.000001 0.000000 -0.595444 -16.331998 -20.041821 0.000000 0.000000 0.000000 12.568538 2.744947 -33.772014 0.037247 -90.710486 0.037689 -131.975716 -8.221733 10.198474 -12.800114 -17.470130 4.121655 1.000137 0.731300 -1.438312 -7.335816 -0.421697 13.147363 0.000001 -0.000001 -0.000002 -3.532547 4.254385 -63.954599 3.402096 5.315506 -65.218936 0.000001 -0.000001 -0.000002 2.434382 7.296044 -69.364075 3.297862 5.266366 -64.088642 0.000001 0.000000 0.000000 4.717042 8.075520 -77.582281 2.056304 4.456878 -49.517656 0.000002 -0.000000 0.000000 6.410337 8.363740 -80.414570 1.722709 4.149883 -45.074409 -0.000001 0.000001 -0.000000 0.746526 18.509862 11.541850 0.000000 0.000000 0.000000 10.125545 24.920396 39.519936 0.000375 96.933731 -0.000412 -33.732617 -20.848230 23.434432 20.470541 7.475569 18.843590 4.151723 -12.160926 -33.847996 -6.346100 -41.944052 -36.535471 -0.000004 -0.000000 -0.000000 -0.887086 1.427987 12.684532 1.917402 -3.767465 53.934326 -0.000001 0.000000 -0.000001 0.770890 -5.199591 54.618830 5.563872 -4.568246 101.238580 0.000001 -0.000001 0.000003 6.934471 -8.544294 63.908762 2.909288 -4.317409 67.934701 -0.000001 -0.000000 0.000001 8.373406 -8.171763 73.989937 2.173682 -3.940959 57.745390 0.000000 -0.000001 0.000002 -13.518120 11.323019 5.409996 16.661987 6.450376 1.496221 4.833590 2.228762 -6.038055 -0.000065 -0.000003 0.000000 0.000000 -0.000000 -0.000000 -2.151701 -14.642814 -8.088173 24.514874 -8.807593 -3.386915 -15.811552 -5.433401 7.777691 -2.342331 0.000000 0.000004 -0.000000 0.000000 -0.000000 
